<svg height="512" viewBox="0 0 50 60" width="512" xmlns="http://www.w3.org/2000/svg"><g id="Page-1" fill="none" fill-rule="evenodd"><g id="121---Profile-Documents" fill-rule="nonzero"><g id="Icons" transform="translate(1 1)"><path id="Shape" d="m44 4v46c0 2.209139-1.790861 4-4 4h-36c-2.209139 0-4-1.790861-4-4v-37h9c2.209139 0 4-1.790861 4-4v-9h27c2.209139 0 4 1.790861 4 4z" fill="#00bcd4"/><path id="Shape" d="m40 0h-3c2.209139 0 4 1.790861 4 4v46c0 2.209139-1.790861 4-4 4h3c2.209139 0 4-1.790861 4-4v-46c0-2.209139-1.790861-4-4-4z" fill="#00838f"/><path id="Shape" d="m48 8v46c0 2.209139-1.790861 4-4 4h-36c-2.209139 0-4-1.790861-4-4h36c2.209139 0 4-1.790861 4-4v-46c2.209139 0 4 1.790861 4 4z" fill="#3f51b5"/><path id="Shape" d="m35.063 23c0 1.6568542-1.3431458 3-3 3-.1882886.0003363-.3760566-.0197817-.56-.06-.9467521 2.9442877-3.1687681 5.3058682-6.05 6.43-2.181952.8399727-4.598048.8399727-6.78 0-2.8812319-1.1241318-5.1032479-3.4857123-6.05-6.43-.1839434.0402183-.3717114.0603363-.56.06-1.0717968 0-2.0621779-.5717967-2.59807629-1.5-.5358984-.9282032-.5358984-2.0717968 0-3 .53589839-.9282033 1.52627949-1.5 2.59807629-1.5v-4.15c.5829324.5133928 1.2630514.9044613 2 1.15 0 0 5.17 1.67 8.42-.42s8.93-1.22 10.24.86c-.1466927.8705722-.3674956 1.7270199-.66 2.56 1.6568542 0 3 1.3431458 3 3z" fill="#ffe0b2"/><path id="Shape" d="m32.063 20c.2925044-.8329801.5133073-1.6894278.66-2.56-.943-1.5-4.15-2.356-7.086-1.946 1.86.254 3.465.96 4.086 1.946-.1466927.8705722-.3674956 1.7270199-.66 2.56 1.6568542 0 3 1.3431458 3 3s-1.3431458 3-3 3c-.1882886.0003363-.3760566-.0197817-.56-.06-.9467521 2.9442877-3.1687681 5.3058682-6.05 6.43-.6107945.232261-1.2442571.3998437-1.89.5 1.6453034.2761549 3.3346328.1034219 4.89-.5 2.8812319-1.1241318 5.1032479-3.4857123 6.05-6.43.1839434.0402183.3717114.0603363.56.06 1.6568542 0 2.9999999-1.3431458 2.9999999-3s-1.3431457-3-2.9999999-3z" fill="#dfc49c"/><path id="Shape" d="m32.723 17.44c-1.31-2.08-6.99-2.94-10.24-.86s-8.42.42-8.42.42c-.7369486-.2455387-1.4170676-.6366072-2-1.15-3.76-3.28-3-10.85-3-10.85 3 6 16 1 21 4 3.18 1.91 3.12 5.83 2.66 8.44z" fill="#ffdc00"/><path id="Shape" d="m27.063 39c0 2.7614237-2.2385763 5-5 5s-5-2.2385763-5-5c2.69-2.02 2.22-4.93 1.61-6.63 2.181952.8399727 4.598048.8399727 6.78 0-.61 1.7-1.08 4.61 1.61 6.63z" fill="#ffe0b2"/><path id="Shape" d="m19.063 33c.5025912-.0021645 1.0041992-.044634 1.5-.127-.6457429-.1001563-1.2792055-.267739-1.89-.5.069.192.135.4.2.621.061-.002.127.006.19.006z" fill="#dfc49c"/><path id="Shape" d="m25.453 32.37c-1.022231.3922355-2.1052583.6024105-3.2.621-.7806038 2.1831699-.046541 4.6201772 1.81 6.009-.0056526 2.1761534-1.4225411 4.0970494-3.5 4.745.4838155.1620147.9898258.2480365 1.5.255 1.3260824 0 2.597852-.5267842 3.5355339-1.4644661s1.4644661-2.2094515 1.4644661-3.5355339c-2.69-2.02-2.22-4.93-1.61-6.63z" fill="#dfc49c"/><path id="Shape" d="m37 47v-1c0-3.8659932-3.1340068-7-7-7h-3c0 2.7614237-2.2385763 5-5 5s-5-2.2385763-5-5h-3c-3.8659932 0-7 3.1340068-7 7v1c0 1.1045695.8954305 2 2 2h26c1.1045695 0 2-.8954305 2-2z" fill="#009688"/><g fill="#00695c"><path id="Shape" d="m19 44c.5100781-.007121 1.0160138-.0927928 1.5-.254-2.0776147-.648336-3.4944634-2.5695828-3.5-4.746h-3c0 1.3260824.5267842 2.597852 1.4644661 3.5355339s2.2094515 1.4644661 3.5355339 1.4644661z"/><path id="Shape" d="m30 39h-3c3.8659932 0 7 3.1340068 7 7v1c0 1.1045695-.8954305 2-2 2h3c1.1045695 0 2-.8954305 2-2v-1c0-3.8659932-3.1340068-7-7-7z"/><path id="Shape" d="m13 0v9c0 2.209139-1.790861 4-4 4h-9z"/></g><path id="Shape" d="m34 5h-6c-.5522847 0-1-.44771525-1-1s.4477153-1 1-1h6c.5522847 0 1 .44771525 1 1s-.4477153 1-1 1z" fill="#f5f5f5"/><path id="Shape" d="m40 5h-2c-.5522847 0-1-.44771525-1-1s.4477153-1 1-1h2c.5522847 0 1 .44771525 1 1s-.4477153 1-1 1z" fill="#f5f5f5"/></g><g id="Layer_2" fill="#000"><path id="Shape" d="m4.092 55.908c.43726914 2.367854 2.50011325 4.0877314 4.908 4.092h36c2.7600532-.0033061 4.9966939-2.2399468 5-5v-46c-.0042686-2.40788675-1.724146-4.47073086-4.092-4.908-.4372691-2.36785399-2.5001132-4.08773136-4.908-4.092h-27c-.2651948.00005664-.5195073.10545063-.707.293l-13 13c-.18754937.1874927-.29294336.4418052-.293.707v37c.00426864 2.4078868 1.72414601 4.4707309 4.092 4.908zm43.908-46.908v46c0 1.6568542-1.3431458 3-3 3h-36c-1.26678543-.0052514-2.39374545-.8056491-2.816-2h34.816c2.7600532-.0033061 4.9966939-2.2399468 5-5v-44.816c1.1943509.42225455 1.9947486 1.54921457 2 2.816zm-4-4v46c0 1.6568542-1.3431458 3-3 3h-36c-1.65685425 0-3-1.3431458-3-3v-36h8c.134 0 .259-.029.391-.04.4029483.8527212.9469207 1.6313218 1.609 2.303v2.864c-1.9319306.4956595-3.20351818 2.3387935-2.98096914 4.3208395.22254905 1.9820459 1.87122314 3.4972857 3.86496914 3.5521605 1.0892864 2.7319487 3.2122729 4.9239287 5.908 6.1.6819063 1.7172332.2125943 3.6777011-1.173 4.9h-2.619c-4.4162219.0049599-7.99504012 3.5837781-8 8v1c0 1.6568542 1.34314575 3 3 3h26c1.6568542 0 3-1.3431458 3-3v-1c-.0049599-4.4162219-3.5837781-7.9950401-8-8h-2.619c-1.3861281-1.2219778-1.8555277-3.1828114-1.173-4.9 2.69535-1.176615 4.8181582-3.3684108 5.908-6.1 1.9328738-.0568229 3.5483473-1.4881956 3.8374888-3.4001651.2891414-1.9119694-.8308486-3.7570181-2.6604888-4.3828349.681-2.491 1.708-8.381-2.778-11.072-2.354-1.414-5.944-1.257-9.748-1.1-2.2539887.17531348-4.519391.14083196-6.767-.103v-5.942h26c1.6568542 0 3 1.34314575 3 3zm-11.821 16.57c.186719.2691522.4934228.4297888.821.43 1.1045695 0 2 .8954305 2 2s-.8954305 2-2 2c-.1152835.0001409-.2302579-.0119264-.343-.036-.500507-.1082578-1.0024688.1767325-1.166.662-.8464663 2.6645769-2.8550606 4.8018801-5.462 5.812-1.9526421.7489773-4.1133579.7489773-6.066 0-2.6034679-1.0111066-4.6088556-3.1470247-5.454-5.809-.1612521-.4871424-.665051-.7731758-1.166-.662-.1128496.0230659-.2278228.0341274-.343.033-1.1045695 0-2-.8954305-2-2s.8954305-2 2-2c.5522847 0 1-.4477153 1-1v-2.324c.2227642.1036065.4511166.1947472.684.273.1020243.0333952.2086499.0506037.316.051.4907827.0003557.9092874-.3554987.9878345-.8399553.0785471-.4844565-.2060815-.954313-.6718345-1.1090447-.6118976-.2046704-1.176652-.5297187-1.661-.956-.5374378-.4828153-.9832595-1.0587249-1.316-1.7 1.6316247-.8600555 2.655175-2.5505866 2.661-4.395v-.042c2.2779197.2259412 4.5710793.255049 6.854.087 3.338-.143 6.792-.294 8.631.812 4.222 2.534 1.605 9.72 1.578 9.793-.1144462.3071449-.0711061.6508769.116.92zm-.179 24.43c-.5522847 0-1 .4477153-1 1v2h-16v-2c0-.5522847-.4477153-1-1-1s-1 .4477153-1 1v2h-3c-.55228475 0-1-.4477153-1-1v-1c.00330738-3.3123376 2.6876624-5.9966926 6-6h2.083c.4856527 2.8893814 2.9870881 5.0054594 5.917 5.0054594s5.4313473-2.116078 5.917-5.0054594h2.083c3.3123376.0033074 5.9966926 2.6876624 6 6v1c0 .5522847-.4477153 1-1 1h-3v-2c0-.5522847-.4477153-1-1-1zm-9-2c-2.0438196-.0060445-3.7526016-1.5555186-3.958-3.589 1.5783458-1.4056541 2.3120484-3.5310054 1.937-5.611 1.3340728.2673304 2.7079272.2673304 4.042 0-.3752495 2.0800101.3584864 4.2054578 1.937 5.611-.2053984 2.0334814-1.9141804 3.5829555-3.958 3.589zm-10-34c0 1.6568542-1.3431458 3-3 3h-6.586l9.586-9.586z"/></g></g></g></svg>