<svg id="Capa_1" enable-background="new 0 0 512 512" height="512" viewBox="0 0 512 512" width="512" xmlns="http://www.w3.org/2000/svg" xmlns:xlink="http://www.w3.org/1999/xlink"><linearGradient id="SVGID_1_" gradientUnits="userSpaceOnUse" x1="8.753" x2="524.202" y1="401.161" y2="103.566"><stop offset="0" stop-color="#dcfdee" stop-opacity="0"/><stop offset=".6288" stop-color="#d2f3e4"/></linearGradient><g><g><path d="m418.32 2.5c-55.666-9.521-178.298 12.183-200.004 105.017-14.431 61.722-14.007 112.075-50.427 113.02-21.67.562-32.97-44.31-62.889-48.001-39.047-4.817-66.145 27.695-83.057 57.138-37.205 64.772-25.571 174.918 23.354 228.632 118.488 130.086 259.197-5.952 319.358-112.309 38.585-68.213 125.637-123.352 143.767-200.248 15.177-64.376-18.503-131.003-90.102-143.249z" fill="url(#SVGID_1_)"/></g><g><g><g><g><path d="m455.47 107.867h-398.94c-8.284 0-15 6.716-15 15v314.266c0 8.284 6.716 15 15 15h56.681v23.948c0 5.523 4.477 10 10 10h265.579c5.523 0 10-4.477 10-10v-23.948h56.681c8.284 0 15-6.716 15-15v-314.266c-.001-8.284-6.716-15-15.001-15z" fill="#2626bc" opacity=".1"/><path d="m455.47 428.133h-398.94c-8.284 0-15-6.716-15-15v-314.266c0-8.284 6.716-15 15-15h398.94c8.284 0 15 6.716 15 15v314.266c0 8.285-6.715 15-15 15z" fill="#d2deff"/><path d="m421.693 324.807h-331.386c-5.523 0-10-4.477-10-10v-109.148c0-5.523 4.477-10 10-10h331.386c5.523 0 10 4.477 10 10v109.149c0 5.522-4.477 9.999-10 9.999z" fill="#b7c5ff"/><path d="m470.47 153.18v-54.313c0-8.284-6.716-15-15-15h-398.94c-8.284 0-15 6.716-15 15v54.313z" fill="#6583fe"/></g><g><g><circle cx="85.623" cy="120.768" fill="#ff5ba8" r="10.901"/><circle cx="120.424" cy="120.768" fill="#fff" r="10.901"/><circle cx="155.224" cy="120.768" fill="#02ffb3" r="10.901"/></g><path d="m432.277 133.015h-136.158v-24.495h136.159c2.761 0 5 2.239 5 5v14.496c-.001 2.761-2.239 4.999-5.001 4.999z" fill="#d2deff"/><path d="m296.789 108.831c-5.286-5.286-13.887-5.286-19.173 0s-5.286 13.887 0 19.173c4.037 4.037 10.003 4.98 14.953 2.852l4.348 4.348c1.952 1.952 5.119 1.952 7.071 0s1.952-5.119 0-7.071l-4.348-4.348c2.129-4.951 1.186-10.917-2.851-14.954zm-12.102 7.071c1.387-1.387 3.644-1.387 5.031 0s1.387 3.644 0 5.031-3.644 1.387-5.031 0-1.387-3.644 0-5.031z" fill="#fff"/></g></g><g><g><path d="m388.79 462.082h-265.58c-5.523 0-10-4.477-10-10v-196.12c0-5.523 4.477-10 10-10h265.58c5.523 0 10 4.477 10 10v196.119c0 5.524-4.477 10.001-10 10.001z" fill="#fff"/><path d="m398.79 286.475h-285.58v-30.513c0-5.523 4.477-10 10-10h265.58c5.523 0 10 4.477 10 10z" fill="#6583fe"/></g><path d="m455.471 78.867h-398.942c-11.028 0-20 8.972-20 20v314.266c0 11.028 8.972 20 20 20h51.681v18.949c0 8.271 6.729 15 15 15h265.58c8.271 0 15-6.729 15-15v-18.949h51.681c11.028 0 20-8.972 20-20v-314.266c0-11.028-8.972-20-20-20zm-61.681 373.215c0 2.757-2.243 5-5 5h-265.58c-2.757 0-5-2.243-5-5v-196.12c0-2.757 2.243-5 5-5h265.58c2.757 0 5 2.243 5 5zm71.681-38.949c0 5.514-4.486 10-10 10h-51.681v-167.171c0-8.271-6.729-15-15-15h-265.58c-8.271 0-15 6.729-15 15v167.171h-51.681c-5.514 0-10-4.486-10-10v-314.266c0-5.514 4.486-10 10-10h398.941c5.514 0 10 4.486 10 10v314.266z" fill="#2626bc"/></g><g><path d="m227.699 396.455h-49.827c-5.523 0-10-4.477-10-10v-21.286c0-5.523 4.477-10 10-10h49.827c5.523 0 10 4.477 10 10v21.286c0 5.522-4.478 10-10 10z" fill="#ff7eb8"/><path d="m334.128 396.455h-49.827c-5.523 0-10-4.477-10-10v-21.286c0-5.523 4.477-10 10-10h49.827c5.523 0 10 4.477 10 10v21.286c0 5.522-4.477 10-10 10z" fill="#02ffb3"/></g><g><path d="m350.963 382.57-26.458-2.37c-2.41-.216-4.427 1.802-4.212 4.212l2.37 26.458c.294 3.28 4.281 4.726 6.609 2.398l5.402-5.402 17.76 17.76c1.516 1.516 3.973 1.516 5.488 0l7.796-7.796c1.516-1.516 1.516-3.973 0-5.488l-17.76-17.76 5.402-5.402c2.329-2.329.882-6.316-2.397-6.61z" fill="#8399fe"/></g><g><g><path d="m339.551 329.807h-11.681c-2.761 0-5-2.239-5-5s2.239-5 5-5h11.681c2.761 0 5 2.239 5 5s-2.238 5-5 5z" fill="#9fb0fe"/></g><g><path d="m339.551 345.293h-20.681c-2.761 0-5-2.239-5-5s2.239-5 5-5h20.681c2.761 0 5 2.239 5 5s-2.238 5-5 5z" fill="#9fb0fe"/></g></g><g><g><path d="m232.699 329.807h-11.681c-2.761 0-5-2.239-5-5s2.239-5 5-5h11.681c2.761 0 5 2.239 5 5s-2.239 5-5 5z" fill="#9fb0fe"/></g><g><path d="m232.699 345.293h-20.681c-2.761 0-5-2.239-5-5s2.239-5 5-5h20.681c2.761 0 5 2.239 5 5s-2.239 5-5 5z" fill="#9fb0fe"/></g></g></g><path d="m87.163 60.87c-7.88 0-14.291-6.411-14.291-14.291 0-7.881 6.411-14.292 14.291-14.292 7.881 0 14.292 6.411 14.292 14.292 0 7.88-6.411 14.291-14.292 14.291zm0-18.583c-2.366 0-4.291 1.926-4.291 4.292s1.925 4.291 4.291 4.291 4.292-1.925 4.292-4.291-1.926-4.292-4.292-4.292z" fill="#01eca5"/><path d="m132.698 51.87c-2.762 0-5-2.238-5-5 0-3.309-2.691-6-6-6-2.762 0-5-2.238-5-5s2.238-5 5-5c3.309 0 6-2.691 6-6 0-2.762 2.238-5 5-5s5 2.238 5 5c0 3.309 2.691 6 6 6 2.762 0 5 2.238 5 5s-2.238 5-5 5c-3.309 0-6 2.691-6 6 0 2.762-2.238 5-5 5z" fill="#6583fe"/><path d="m428.693 494.13c-2.762 0-5-2.238-5-5 0-3.309-2.691-6-6-6-2.762 0-5-2.238-5-5s2.238-5 5-5c3.309 0 6-2.691 6-6 0-2.762 2.238-5 5-5s5 2.238 5 5c0 3.309 2.691 6 6 6 2.762 0 5 2.238 5 5s-2.238 5-5 5c-3.309 0-6 2.691-6 6 0 2.762-2.238 5-5 5z" fill="#01eca5"/><g fill="#ff5ba8"><path d="m347.277 53.579c-2.762 0-5-2.238-5-5 0-3.309-2.691-6-6-6-2.762 0-5-2.238-5-5s2.238-5 5-5c3.309 0 6-2.691 6-6 0-2.762 2.238-5 5-5s5 2.238 5 5c0 3.309 2.691 6 6 6 2.762 0 5 2.238 5 5s-2.238 5-5 5c-3.309 0-6 2.691-6 6 0 2.762-2.238 5-5 5z"/><path d="m467.471 471.421c-2.762 0-5-2.238-5-5 0-3.309-2.691-6-6-6-2.762 0-5-2.238-5-5s2.238-5 5-5c3.309 0 6-2.691 6-6 0-2.762 2.238-5 5-5s5 2.238 5 5c0 3.309 2.691 6 6 6 2.762 0 5 2.238 5 5s-2.238 5-5 5c-3.309 0-6 2.691-6 6 0 2.762-2.239 5-5 5z"/></g></g></g></svg>