<svg id="Layer_1" enable-background="new 0 0 256 256" height="512" viewBox="0 0 256 256" width="512" xmlns="http://www.w3.org/2000/svg"><g><g><g><path d="m244.75 211.485h-9.77v-137.69c0-5.52-4.47-10-10-10h-39.31c.734 4.893.817 10.003.3 14.8-2.64 24.87-20.96 45.05-44.89 50.49l-12.96 20.91-12.96-20.91c-23.93-5.44-42.24-25.62-44.88-50.49-.517-4.796-.434-9.905.3-14.8h-39.56c-5.53 0-10 4.48-10 10v137.69h-9.77c-2.76 0-5 2.24-5 5v10.31c0 8.28 6.72 15 15 15h213.5c8.28 0 15-6.72 15-15v-10.31c0-2.76-2.24-5-5-5z" fill="#afafaf"/></g></g><g><path d="m97.397 211.489v9.639c0 2.761 2.239 5 5 5h51.206c2.761 0 5-2.239 5-5v-9.639z" fill="#7a7380"/></g><g><path d="m235.167 234.295h-53.277c-1.381 0-2.5-1.119-2.5-2.5s1.119-2.5 2.5-2.5h53.277c1.379 0 2.5-1.121 2.5-2.5v-5.306c0-1.381 1.119-2.5 2.5-2.5s2.5 1.119 2.5 2.5v5.306c0 4.136-3.364 7.5-7.5 7.5zm-63.277 0h-5c-1.381 0-2.5-1.119-2.5-2.5s1.119-2.5 2.5-2.5h5c1.381 0 2.5 1.119 2.5 2.5s-1.119 2.5-2.5 2.5z" fill="#efefef"/></g><g><path d="m220.18 78.595v118.09h-184.36v-118.09h34.46c2.64 24.87 20.95 45.05 44.88 50.49l12.96 20.91 12.96-20.91c23.93-5.44 42.25-25.62 44.89-50.49z" fill="#f0c020"/></g><g><path d="m207.75 187.545h-146.75c-1.381 0-2.5-1.119-2.5-2.5s1.119-2.5 2.5-2.5h144.25v-92.75c0-1.381 1.119-2.5 2.5-2.5s2.5 1.119 2.5 2.5v95.25c0 1.381-1.119 2.5-2.5 2.5zm-156.75 0h-3.333c-1.381 0-2.5-1.119-2.5-2.5s1.119-2.5 2.5-2.5h3.333c1.381 0 2.5 1.119 2.5 2.5s-1.119 2.5-2.5 2.5z" fill="#f9e5af"/></g><g><path d="m185.67 63.795c-4.15-28.06-28.34-49.59-57.55-49.59s-53.39 21.53-57.54 49.59c-.734 4.893-.817 10.003-.3 14.8 2.64 24.87 20.95 45.05 44.88 50.49l12.96 20.91 12.96-20.91c23.93-5.44 42.25-25.62 44.89-50.49.517-4.796.434-9.905-.3-14.8z" fill="#fc5d3d"/></g><g><path d="m126.804 131.241c-1.174-.728-1.536-2.269-.808-3.442l6.031-9.731c.353-.568.918-.972 1.57-1.12 26.97-6.136 39.197-24.155 39.197-44.564.001-19.324-12.341-36.38-30.71-42.439-1.312-.433-2.023-1.846-1.591-3.157s1.843-2.026 3.157-1.591c20.423 6.737 34.145 25.7 34.144 47.188 0 22.369-13.756 42.762-42.068 49.208l-5.48 8.843c-.728 1.171-2.268 1.532-3.442.805zm6.045-103.284c-1.562-.165-3.152-.248-4.728-.248-1.381 0-2.5-1.119-2.5-2.5s1.119-2.5 2.5-2.5c1.749 0 3.517.093 5.251.275 1.373.145 2.369 1.375 2.225 2.748-.148 1.399-1.409 2.372-2.748 2.225z" fill="#ffcbc2"/></g><g><path d="m110.58 51.319c-1.02-.859-2.66-.71-3.52.311l-16.75 19.96c-.78.93-.78 2.29 0 3.22l16.75 19.971c.912 1.064 2.461 1.181 3.52.31 1.06-.89 1.2-2.47.31-3.53 0 0 0 0-.01 0l-15.39-18.361 15.4-18.36c.852-1.011.801-2.583-.31-3.521z"/><path d="m145.39 95.09c1.071.88 2.65.743 3.521-.31l16.75-19.971c.779-.93.779-2.29 0-3.22l-16.75-19.96c-.851-1.021-2.5-1.17-3.521-.311-1.121.947-1.142 2.535-.31 3.521h.01l15.39 18.36-15.4 18.361c-.88 1.06-.75 2.64.31 3.53z"/><path d="m135.41 50.85c-1.311-.41-2.73.351-3.13 1.641l-12.42 39.939c-.398 1.319.334 2.718 1.65 3.13 1.393.408 2.729-.373 3.13-1.649l12.41-39.94c.418-1.317-.334-2.733-1.64-3.121z"/><path d="m91.86 177.99h72.28c1.38 0 2.5-1.12 2.5-2.5 0-1.37-1.12-2.5-2.5-2.5h-72.28c-1.38 0-2.5 1.13-2.5 2.5 0 1.38 1.12 2.5 2.5 2.5z"/><path d="m91.86 165.25h72.28c1.38 0 2.5-1.12 2.5-2.5s-1.12-2.5-2.5-2.5h-72.28c-1.38 0-2.5 1.12-2.5 2.5s1.12 2.5 2.5 2.5z"/><circle cx="234.979" cy="178.77" r="2.5"/><path d="m244.75 208.979h-7.271v-20.21c0-1.38-1.12-2.5-2.5-2.5-1.37 0-2.489 1.11-2.5 2.49v.01 20.221c-10.921 0-198.233 0-208.959 0v-135.19c.01-4.13 3.37-7.5 7.5-7.51h36.739c-.363 3.622-.379 6.651-.184 9.81h-31.755c-1.414 0-2.5 1.151-2.5 2.49v44.75c0 1.38 1.12 2.51 2.5 2.51s2.5-1.13 2.5-2.51v-42.25h29.759c3.534 24.737 21.94 44.406 45.501 50.19l12.42 20.03c.948 1.56 3.227 1.613 4.25 0l12.41-20.029c23.568-5.787 41.974-25.452 45.511-50.19h29.509v113.09h-179.36v-50.84c0-1.37-1.12-2.5-2.5-2.5s-2.5 1.13-2.5 2.5v53.34c0 1.403 1.131 2.5 2.5 2.5h184.36c1.387 0 2.5-1.111 2.5-2.5v-118.091c0-1.323-1.054-2.49-2.5-2.49h-31.505c.192-3.107.183-6.144-.185-9.81h36.49c4.13.01 7.49 3.38 7.5 7.51v94.97c0 1.38 1.12 2.5 2.5 2.5s2.5-1.12 2.5-2.5v-94.97c0-6.9-5.609-12.5-12.5-12.51h-37.203c-1.132-6.147-3.199-12.048-6.157-17.57-.618-1.136-2.048-1.71-3.391-1.02-1.263.684-1.645 2.202-1.02 3.39 3.03 5.65 5.05 11.729 5.99 18.07.673 4.529.797 9.312.279 14.17-2.5 23.63-19.76 43.05-42.96 48.319-.64.141-1.22.551-1.569 1.12l-10.831 17.48-10.84-17.48c-.35-.569-.92-.979-1.57-1.12-23.18-5.27-40.44-24.689-42.94-48.319-.528-4.901-.38-9.77.28-14.16 4-27.061 27.67-47.47 55.07-47.47 13.831 0 27.1 5.109 37.35 14.39.98.89 2.64.81 3.53-.18.93-1.021.85-2.601-.17-3.53-.011 0-.011 0-.011 0-11.17-10.11-25.619-15.67-40.7-15.67-29.714 0-54.434 21.332-59.647 49.589l-37.45-.009c-6.89.01-12.5 5.609-12.5 12.51v135.18h-7.27c-4.13.011-7.5 3.369-7.5 7.511v10.3.01c0 9.64 7.85 17.49 17.5 17.49h213.5c9.648 0 17.5-7.85 17.5-17.49v-.01-10.3c0-4.141-3.369-7.501-7.5-7.512zm-88.65 5.011v7.14c0 1.37-1.12 2.5-2.5 2.5h-51.2c-1.38 0-2.5-1.13-2.5-2.5v-7.14zm78.65 25.31c-10.798 0-202.704 0-213.5 0-6.879-.02-12.49-5.628-12.5-12.51v-10.3c0-1.381 1.12-2.5 2.5-2.5h83.65v7.14c0 4.13 3.36 7.5 7.5 7.5h51.2c4.141 0 7.5-3.37 7.5-7.5v-7.14h83.65c1.388 0 2.5 1.133 2.5 2.5v10.3c-.01 6.881-5.621 12.49-12.5 12.51z"/><path d="m35.82 135.84c1.38 0 2.5-1.12 2.5-2.5 0-1.37-1.12-2.49-2.5-2.49s-2.5 1.12-2.5 2.49c0 1.38 1.12 2.5 2.5 2.5z"/><path d="m171.99 38.1c.886 1.109 2.47 1.228 3.5.41 1.09-.85 1.279-2.42.43-3.51-.82-1.05-2.46-1.25-3.51-.42-1.094.862-1.28 2.427-.42 3.51z"/></g></g></svg>